<svg width="600" height="600" viewBox="0 0 600 600" fill="none" xmlns="http://www.w3.org/2000/svg">
<rect width="600" height="600" rx="150" fill="#282828"/>
<rect width="600" height="600" rx="150" fill="url(#paint0_linear_41_26)"/>
<g filter="url(#filter0_d_41_26)">
<g filter="url(#filter1_i_41_26)">
<rect x="100" y="100" width="400" height="320" rx="50" fill="url(#paint1_linear_41_26)"/>
</g>
<rect x="103" y="103" width="394" height="314" rx="47" stroke="white" stroke-width="6"/>
<mask id="mask0_41_26" style="mask-type:alpha" maskUnits="userSpaceOnUse" x="164" y="420" width="271" height="80">
<rect x="283" y="420" width="33" height="80" fill="white"/>
<path d="M283 481H274C278.5 481 283 476.5 283 472V481Z" fill="white"/>
<path d="M316 481H325C320.5 481 316 476.5 316 472V481Z" fill="white"/>
<rect x="435" y="481" width="19" height="271" rx="9.50001" transform="rotate(90 435 481)" fill="white"/>
</mask>
<g mask="url(#mask0_41_26)">
<rect x="164" y="420" width="271" height="80" fill="url(#paint2_linear_41_26)"/>
</g>
</g>
<defs>
<filter id="filter0_d_41_26" x="88" y="88" width="424" height="424" filterUnits="userSpaceOnUse" color-interpolation-filters="sRGB">
<feFlood flood-opacity="0" result="BackgroundImageFix"/>
<feColorMatrix in="SourceAlpha" type="matrix" values="0 0 0 0 0 0 0 0 0 0 0 0 0 0 0 0 0 0 127 0" result="hardAlpha"/>
<feOffset/>
<feGaussianBlur stdDeviation="6"/>
<feComposite in2="hardAlpha" operator="out"/>
<feColorMatrix type="matrix" values="0 0 0 0 0 0 0 0 0 0 0 0 0 0 0 0 0 0 1 0"/>
<feBlend mode="normal" in2="BackgroundImageFix" result="effect1_dropShadow_41_26"/>
<feBlend mode="normal" in="SourceGraphic" in2="effect1_dropShadow_41_26" result="shape"/>
</filter>
<filter id="filter1_i_41_26" x="100" y="100" width="400" height="324" filterUnits="userSpaceOnUse" color-interpolation-filters="sRGB">
<feFlood flood-opacity="0" result="BackgroundImageFix"/>
<feBlend mode="normal" in="SourceGraphic" in2="BackgroundImageFix" result="shape"/>
<feColorMatrix in="SourceAlpha" type="matrix" values="0 0 0 0 0 0 0 0 0 0 0 0 0 0 0 0 0 0 127 0" result="hardAlpha"/>
<feOffset dy="4"/>
<feGaussianBlur stdDeviation="8.65"/>
<feComposite in2="hardAlpha" operator="arithmetic" k2="-1" k3="1"/>
<feColorMatrix type="matrix" values="0 0 0 0 0 0 0 0 0 0 0 0 0 0 0 0 0 0 0.26 0"/>
<feBlend mode="normal" in2="shape" result="effect1_innerShadow_41_26"/>
</filter>
<linearGradient id="paint0_linear_41_26" x1="300" y1="0" x2="300" y2="600" gradientUnits="userSpaceOnUse">
<stop stop-opacity="0"/>
<stop offset="1" stop-opacity="0.5"/>
</linearGradient>
<linearGradient id="paint1_linear_41_26" x1="300" y1="100" x2="300" y2="420" gradientUnits="userSpaceOnUse">
<stop stop-color="#F4E784"/>
<stop offset="0.5" stop-color="#F24389"/>
<stop offset="1" stop-color="#A478F1"/>
</linearGradient>
<linearGradient id="paint2_linear_41_26" x1="308" y1="460" x2="308" y2="420" gradientUnits="userSpaceOnUse">
<stop stop-color="white"/>
<stop offset="1" stop-color="white" stop-opacity="0.62"/>
</linearGradient>
</defs>
</svg>
